<svg width="18" height="18" viewBox="0 0 18 18" fill="none" xmlns="http://www.w3.org/2000/svg">
<path d="M2 18H0V17.0526C0.00440864 13.3918 3.13583 10.4252 7 10.4211H11C14.8642 10.4252 17.9956 13.3918 18 17.0526V18H16V17.0526C15.9967 14.4378 13.7601 12.3189 11 12.3158H7C4.23995 12.3189 2.00331 14.4378 2 17.0526V18ZM9 9.47368C6.23858 9.47368 4 7.35293 4 4.73684C4 2.12076 6.23858 0 9 0C11.7614 0 14 2.12076 14 4.73684C13.9967 7.35163 11.7601 9.47055 9 9.47368ZM9 1.89474C7.34315 1.89474 6 3.16719 6 4.73684C6 6.30649 7.34315 7.57895 9 7.57895C10.6569 7.57895 12 6.30649 12 4.73684C12 3.16719 10.6569 1.89474 9 1.89474Z" fill="#2E3A59" fill-opacity="0.43"/>
</svg>
